<svg xmlns:xlink="http://www.w3.org/1999/xlink" xmlns="http://www.w3.org/2000/svg" version="1.1" viewBox="0 0 600 600" height="600px" width="600px">
    <title>网络不给力</title>
    <defs>
        <linearGradient id="linearGradient-1" y2="100%" x2="50%" y1="0%" x1="50%">
            <stop offset="0%" stop-color="#F9AB21"></stop>
            <stop offset="100%" stop-color="#FEE127"></stop>
        </linearGradient>
        <linearGradient id="linearGradient-2" y2="100%" x2="50%" y1="0%" x1="50%">
            <stop offset="0%" stop-color="#F9AB21"></stop>
            <stop offset="100%" stop-opacity="0" stop-color="#FFF29D"></stop>
        </linearGradient>
        <linearGradient id="linearGradient-3" y2="100%" x2="50%" y1="0%" x1="50%">
            <stop offset="0%" stop-color="#FFF29D"></stop>
            <stop offset="100%" stop-color="#F9AB21"></stop>
        </linearGradient>
        <linearGradient id="linearGradient-4" y2="39.6687968%" x2="50%" y1="0%" x1="50%">
            <stop offset="0%" stop-color="#FFF29D"></stop>
            <stop offset="100%" stop-color="#F9AB21"></stop>
        </linearGradient>
        <linearGradient id="linearGradient-5" y2="55.7224954%" x2="50%" y1="0%" x1="50%">
            <stop offset="0%" stop-color="#FFF29D"></stop>
            <stop offset="100%" stop-color="#F9AB21"></stop>
        </linearGradient>
        <linearGradient id="linearGradient-6" y2="100%" x2="50%" y1="0%" x1="50%">
            <stop offset="0%" stop-color="#FFF29D"></stop>
            <stop offset="100%" stop-color="#F9AB21"></stop>
        </linearGradient>
        <linearGradient id="linearGradient-7" y2="100%" x2="50%" y1="0%" x1="50%">
            <stop offset="0%" stop-color="#FFF29D"></stop>
            <stop offset="100%" stop-color="#F9AB21"></stop>
        </linearGradient>
        <linearGradient id="linearGradient-8" y2="100%" x2="50%" y1="0%" x1="50%">
            <stop offset="0%" stop-color="#FFF29D"></stop>
            <stop offset="100%" stop-color="#F9AB21"></stop>
        </linearGradient>
        <linearGradient id="linearGradient-9" y2="76.8040934%" x2="50%" y1="-40.2366026%" x1="52.2009858%">
            <stop offset="0%" stop-color="#FFF29D"></stop>
            <stop offset="100%" stop-opacity="0" stop-color="#F9AB21"></stop>
        </linearGradient>
        <linearGradient id="linearGradient-10" y2="100%" x2="50%" y1="0%" x1="50%">
            <stop offset="0%" stop-color="#FFF29D"></stop>
            <stop offset="100%" stop-color="#F9AB21"></stop>
        </linearGradient>
        <linearGradient id="linearGradient-11" y2="100%" x2="50%" y1="0%" x1="50%">
            <stop offset="0%" stop-color="#FFF29D"></stop>
            <stop offset="100%" stop-color="#F9AB21"></stop>
        </linearGradient>
        <linearGradient id="linearGradient-12" y2="100%" x2="50%" y1="0%" x1="50%">
            <stop offset="0%" stop-color="#FFF29D"></stop>
            <stop offset="100%" stop-color="#F9AB21"></stop>
        </linearGradient>
        <linearGradient id="linearGradient-13" y2="97.1106985%" x2="0%" y1="34.4899654%" x1="89.4431057%">
            <stop offset="0%" stop-color="#F9AB21"></stop>
            <stop offset="100%" stop-opacity="0" stop-color="#FEE127"></stop>
        </linearGradient>
        <linearGradient id="linearGradient-14" y2="100%" x2="50%" y1="0%" x1="50%">
            <stop offset="0%" stop-color="#FFF29D"></stop>
            <stop offset="100%" stop-color="#F9AB21"></stop>
        </linearGradient>
        <linearGradient id="linearGradient-15" y2="61.7592291%" x2="0%" y1="46.1285641%" x1="89.4431057%">
            <stop offset="0%" stop-color="#F9AB21"></stop>
            <stop offset="100%" stop-opacity="0" stop-color="#FEE127"></stop>
        </linearGradient>
        <linearGradient id="linearGradient-16" y2="100%" x2="50%" y1="0%" x1="50%">
            <stop offset="0%" stop-color="#FFF29D"></stop>
            <stop offset="100%" stop-color="#F9AB21"></stop>
        </linearGradient>
        <linearGradient id="linearGradient-17" y2="62.9537538%" x2="0%" y1="45.7352963%" x1="89.4431057%">
            <stop offset="0%" stop-color="#F9AB21"></stop>
            <stop offset="100%" stop-opacity="0" stop-color="#FEE127"></stop>
        </linearGradient>
        <linearGradient id="linearGradient-18" y2="54.0631499%" x2="0%" y1="48.6623082%" x1="89.4431057%">
            <stop offset="0%" stop-color="#F9AB21"></stop>
            <stop offset="100%" stop-opacity="0" stop-color="#FEE127"></stop>
        </linearGradient>
        <linearGradient id="linearGradient-19" y2="100%" x2="50%" y1="12.9243097%" x1="50%">
            <stop offset="0%" stop-color="#FFCDA5"></stop>
            <stop offset="100%" stop-color="#FFE8D1"></stop>
        </linearGradient>
        <linearGradient id="linearGradient-20" y2="100%" x2="93.4428548%" y1="0%" x1="41.3771295%">
            <stop offset="0%" stop-color="#FFF2DF"></stop>
            <stop offset="100%" stop-color="#FEE0BC"></stop>
        </linearGradient>
        <linearGradient id="linearGradient-21" y2="74.0595143%" x2="100%" y1="11.0183481%" x1="14.3474826%">
            <stop offset="0%" stop-color="#BFD4FA"></stop>
            <stop offset="100%" stop-color="#5792F0"></stop>
        </linearGradient>
        <linearGradient id="linearGradient-22" y2="106.078536%" x2="47.5607402%" y1="27.9156334%" x1="56.1156379%">
            <stop offset="0%" stop-color="#BFD4FA"></stop>
            <stop offset="100%" stop-color="#5792F0"></stop>
        </linearGradient>
        <linearGradient id="linearGradient-23" y2="85.1294507%" x2="38.165261%" y1="0%" x1="58.9163643%">
            <stop offset="0%" stop-color="#BFD4FA"></stop>
            <stop offset="100%" stop-color="#5792F0"></stop>
        </linearGradient>
        <linearGradient id="linearGradient-24" y2="100%" x2="50%" y1="0%" x1="50%">
            <stop offset="0%" stop-color="#FEE127"></stop>
            <stop offset="100%" stop-color="#F9AB21"></stop>
        </linearGradient>
        <linearGradient id="linearGradient-25" y2="100%" x2="50%" y1="0%" x1="50%">
            <stop offset="0%" stop-color="#FEE127"></stop>
            <stop offset="100%" stop-color="#F9AB21"></stop>
        </linearGradient>
        <linearGradient id="linearGradient-26" y2="121.395625%" x2="50%" y1="-13.5527994%" x1="46.9282325%">
            <stop offset="0%" stop-color="#FEE127"></stop>
            <stop offset="100%" stop-color="#F9AB21"></stop>
        </linearGradient>
        <linearGradient id="linearGradient-27" y2="100%" x2="50%" y1="0%" x1="50%">
            <stop offset="0%" stop-color="#FFF29D"></stop>
            <stop offset="100%" stop-color="#F9AB21"></stop>
        </linearGradient>
        <linearGradient id="linearGradient-28" y2="100%" x2="50%" y1="0%" x1="50%">
            <stop offset="0%" stop-color="#FFF29D"></stop>
            <stop offset="100%" stop-color="#F9AB21"></stop>
        </linearGradient>
        <linearGradient id="linearGradient-29" y2="100%" x2="50%" y1="0%" x1="50%">
            <stop offset="0%" stop-color="#FFF29D"></stop>
            <stop offset="100%" stop-color="#F9AB21"></stop>
        </linearGradient>
        <linearGradient id="linearGradient-30" y2="100%" x2="50%" y1="0%" x1="50%">
            <stop offset="0%" stop-color="#FFF29D"></stop>
            <stop offset="100%" stop-color="#F9AB21"></stop>
        </linearGradient>
        <linearGradient id="linearGradient-31" y2="100%" x2="50%" y1="0%" x1="50%">
            <stop offset="0%" stop-color="#FFF29D"></stop>
            <stop offset="100%" stop-color="#F9AB21"></stop>
        </linearGradient>
        <linearGradient id="linearGradient-32" y2="100%" x2="50%" y1="0%" x1="50%">
            <stop offset="0%" stop-color="#FFF29D"></stop>
            <stop offset="100%" stop-color="#F9AB21"></stop>
        </linearGradient>
    </defs>
    <g fill-rule="evenodd" fill="none" stroke-width="1" stroke="none" id="网络不给力">
        <path opacity="0.100000001" fill="url(#linearGradient-1)" id="路径-56" d="M75.4538129,275.205041 C51.7680125,229.443258 56.5929952,190.316311 89.9287611,157.8242 C139.93241,109.086034 192.780898,126.201756 210.55004,139.70944 C228.319183,153.217123 266.011641,192.187784 320.53591,125.727828 C375.060179,59.2678716 429.689457,115.02312 424.010069,157.8242 C418.330681,200.62528 409.379368,248.815479 511.553807,248.877841 C579.670099,248.919416 579.670099,282.679541 511.553807,350.158217 C466.609685,381.94843 462.407288,408.210658 498.946616,428.9449 C535.485945,449.679142 531.170504,467.294006 486.000295,481.789492 C379.644509,504.233329 278.078938,510.400298 181.30358,500.2904 C84.5282235,490.180502 65.4533463,470.332569 124.078949,440.7466 C141.49557,418.283167 130.112174,408.056835 89.9287611,410.067605 C29.6536415,413.08376 15.5674395,362.273415 75.4538129,350.158217 C115.378062,342.081419 115.378062,317.097027 75.4538129,275.205041 Z"></path>
        <path fill="url(#linearGradient-2)" id="云" d="M105.111111,153 C117.447254,153 127.942032,160.883824 131.831876,171.887904 L141.5,171.888889 C151.164983,171.888889 159,179.723906 159,189.388889 L159,193.277778 C159,202.942761 151.164983,210.777778 141.5,210.777778 L69.8333333,210.777778 C61.1659376,210.777778 53.9702379,204.476698 52.5771453,196.205449 C50.3142484,192.725379 49,188.571725 49,184.111111 C49,171.838117 58.9492278,161.888889 71.2222222,161.888889 C75.1889854,161.888889 78.9129959,162.928237 82.1367857,164.749464 C87.2822134,157.631609 95.6557772,153 105.111111,153 Z"></path>
        <g transform="translate(271.227542, 223.871284) scale(-1, 1) translate(-271.227542, -223.871284) translate(64.078481, -11.784390)" id="404">
            <g transform="translate(207.149061, 235.655674) rotate(-20.000000) translate(-207.149061, -235.655674) translate(58.257626, 39.068194)" id="编组">
                <g transform="translate(84.001171, 69.208316) rotate(-13.000000) translate(-84.001171, -69.208316) translate(10.258200, 15.204443)" id="编组-3">
                    <polygon points="70.6644039 3.75336378 75.5378111 3.75336378 77.9745146 35.0296781 68.2277003 35.0296781" fill="url(#linearGradient-3)" id="路径"></polygon>
                    <rect rx="34.1138502" height="72.9780668" width="68.2277003" y="24.60424" x="38.9872573" fill="url(#linearGradient-4)" id="矩形"></rect>
                    <ellipse ry="31.2763143" rx="73.1011075" cy="73.2044223" cx="74.3848335" fill="url(#linearGradient-5)" id="椭圆形"></ellipse>
                    <ellipse ry="31.2763143" rx="73.1011075" cy="76.7314306" cx="73.1011075" fill="url(#linearGradient-6)" id="椭圆形备份"></ellipse>
                    <ellipse ry="15.6381572" rx="43.8606645" cy="79.3377901" cx="73.1011075" fill="url(#linearGradient-7)" id="椭圆形"></ellipse>
                    <ellipse ry="3.75336378" rx="3.5090458" cy="3.75336378" cx="73.1011075" fill="url(#linearGradient-8)" id="椭圆形"></ellipse>
                </g>
                <polygon points="39.4986435 91.9358738 127.219972 91.9358738 297.78287 357.428673 23.619816 393.17496" opacity="0.5" fill="url(#linearGradient-9)" id="路径"></polygon>
            </g>
        </g>
        <g transform="translate(108.000000, 254.999976)" id="信号">
            <rect rx="13" height="28" width="148" y="218.000024" x="31" fill="#BE841D" id="矩形"></rect>
            <path fill="url(#linearGradient-10)" id="形状" d="M84.2012986,225.912079 C86.3506033,226.34598 88.4375213,224.919042 88.8625653,222.72492 L91.068237,211.328902 C91.3062591,211.211459 91.5641164,211.146663 91.7823034,210.980623 L109.522886,197.32889 L126.815194,210.721439 L129.139877,222.72897 C129.412737,224.150445 130.40852,225.314908 131.751368,225.782832 C133.094216,226.250756 134.579626,225.95088 135.646927,224.996392 C136.714228,224.041905 137.200882,222.578165 136.9232,221.157664 L128.989129,180.153869 C128.979205,179.703512 128.893317,179.258271 128.735239,178.837697 L116.631814,116.264893 C116.20677,114.070772 114.119852,112.643833 111.970547,113.077734 C110.550776,113.377864 109.408478,114.452125 108.999237,115.872067 C108.589997,114.452125 107.447699,113.377864 106.027928,113.077734 C103.878623,112.643833 101.791705,114.070772 101.366661,116.264893 L81.0752746,221.153614 C80.6527407,223.348567 82.0516957,225.47807 84.2012986,225.912079 L84.2012986,225.912079 Z M120.614717,178.647359 L109.542721,187.168049 L97.5424389,177.873855 L100.061506,164.841735 L117.944902,164.841735 L120.614717,178.647359 L120.614717,178.647359 Z M93.3254802,199.645352 L95.8247126,186.718526 L102.949508,192.238345 L93.3254802,199.645352 Z M116.108165,192.254544 L122.320543,187.47583 L124.502412,198.758455 L116.108165,192.254544 Z M108.999237,118.625902 L116.373956,156.74222 L101.624518,156.74222 L108.999237,118.625902 L108.999237,118.625902 Z"></path>
            <path fill="url(#linearGradient-11)" id="路径" d="M97,109.000024 C97,115.627441 102.148725,121.000024 108.5,121.000024 C114.851275,121.000024 120,115.627441 120,109.000024 C120,102.372607 114.851275,97.0000241 108.5,97.0000241 C102.148725,97.0000241 97,102.372607 97,109.000024 Z"></path>
            <path fill="url(#linearGradient-12)" id="形状结合" d="M215,109.653876 C215,139.382195 203.498173,167.257744 183.409494,187.834387 C180.585001,190.727489 176.011838,190.721074 173.195048,187.82006 C170.378259,184.919047 170.384504,180.221988 173.208997,177.328887 C190.607065,159.508211 200.55458,135.399656 200.55458,109.653876 C200.55458,61.8622335 166.402013,22.2634557 121.79653,15.1992615 L125.040868,7.88494093 L120.167492,3.39728246e-14 C173.568309,6.43839619 215,53.0766086 215,109.653876 Z M86.6267946,1.32146774 L91.5068559,7.88494093 L89.0003525,15.967005 C46.4703455,24.7782599 14.4454205,63.3748358 14.4454205,109.653876 C14.4454205,134.585932 23.7700899,157.993405 40.2017046,175.661014 C42.9570529,178.623621 42.852386,183.319454 39.9679245,186.14945 C37.0834629,188.979446 32.5114937,188.871943 29.7561453,185.909336 C10.7822338,165.508197 0,138.441839 0,109.653876 C0,56.0100882 37.2466821,11.301413 86.6267946,1.32146774 Z M178.755196,104.22022 C178.755196,123.9231 171.129757,142.40393 157.81579,156.0413 C154.991297,158.934401 150.418134,158.927987 147.601345,156.026973 C144.784556,153.125959 144.790801,148.4289 147.615294,145.535799 C158.238649,134.654398 164.309776,119.940561 164.309776,104.22022 C164.309776,73.0312407 140.484583,47.5576909 110.507547,45.9517261 L109.280561,43.4242292 L114.615004,31.3948697 C150.627595,35.0617685 178.755196,66.2672268 178.755196,104.22022 Z M82.9529351,35.4932171 L78.5059775,49.8531051 L81.3032612,52.43184 C63.1124782,62.1586652 50.690224,81.6994543 50.690224,104.22022 C50.690224,119.443839 56.3811157,133.729535 66.4141413,144.51725 C69.1694897,147.479857 69.0648228,152.17569 66.1803612,155.005686 C63.2958997,157.835682 58.7239304,157.728179 55.9685821,154.765572 C43.3932596,141.244327 36.2448035,123.299745 36.2448035,104.22022 C36.2448035,72.6608229 55.6938377,45.7670577 82.9529351,35.4932171 Z M93.3620505,63.5453509 L102.856829,72.2967509 L101.921227,76.245192 C91.9248416,78.8055021 84.5187073,88.0888255 84.5187073,99.1488076 C84.5187073,102.058269 85.0281204,104.883923 86.0086722,107.533198 L86.2110531,108.060674 C87.7183519,111.853983 85.9462863,116.184079 82.2530339,117.732214 C78.5597816,119.280348 74.3439018,117.460274 72.836603,113.666964 C71.019619,109.094292 70.0732868,104.182905 70.0732868,99.1488076 C70.0732868,83.0567108 79.700504,69.2740887 93.3620505,63.5453509 Z M144.926713,99.1488076 C144.926713,103.985854 144.053052,108.710623 142.371427,113.131943 C140.919953,116.94815 136.731255,118.833268 133.015709,117.342471 C129.379216,115.883392 127.543722,111.731294 128.828046,107.977504 L128.916243,107.733288 C129.946076,105.025657 130.481293,102.131198 130.481293,99.1488076 C130.481293,89.5932857 124.952993,81.3639483 117.002212,77.6507555 L123.291229,72.2967509 L118.484812,62.390442 C133.794683,67.2110383 144.926713,81.8446907 144.926713,99.1488076 Z"></path>
        </g>
        <g transform="translate(68.183153, 216.000000)" id="落叶">
            <path stroke-linecap="round" stroke-width="2" stroke="url(#linearGradient-13)" id="路径-20" d="M333.816847,37.9152038 C305.869631,40.8235963 284.087654,36.9574891 268.470917,26.3168822 C256.116334,17.5183143 259.85138,0 271.60671,0 C283.362041,0 290.49158,8.63940853 290.49158,22.0621474 C290.49158,35.4848863 282.812568,51.1009298 271.60671,58"></path>
            <path transform="translate(258.944755, 55.780581) rotate(-14.000000) translate(-258.944755, -55.780581)" fill="url(#linearGradient-14)" id="路径-18" d="M270.410284,53.3988635 C266.516891,48.9353469 261.871233,48.8081017 256.473309,53.0171278 C253.623181,55.3964075 251.813974,59.2767106 247.479225,59.1579812 C261.202921,63.7813761 268.846607,61.8616702 270.410284,53.3988635 Z"></path>
            <path transform="translate(266.813202, 51.678041) rotate(-14.000000) translate(-266.813202, -51.678041)" stroke-linecap="round" stroke-width="2" stroke="url(#linearGradient-15)" id="路径-19" d="M275.414784,48.2636505 C274.095339,50.6608365 268.36095,52.9370966 258.211619,55.0924307"></path>
            <path transform="translate(11.852372, 213.548453) rotate(2.000000) translate(-11.852372, -213.548453)" fill="url(#linearGradient-16)" id="路径-18备份" d="M23.507329,210.908755 C19.7417294,206.596044 15.0650054,206.61495 9.47715693,210.965476 C6.52120844,213.418448 4.56115129,217.330125 0.197415116,217.347766 C13.8629147,221.511807 21.632886,219.36547 23.507329,210.908755 Z"></path>
            <path transform="translate(20.709649, 211.608086) rotate(2.000000) translate(-20.709649, -211.608086)" stroke-linecap="round" stroke-width="2" stroke="url(#linearGradient-17)" id="路径-19备份" d="M29.4976205,207.946815 C28.0834383,210.369694 22.2247904,212.810541 11.9216769,215.269356"></path>
            <path stroke-linecap="round" stroke-width="2" stroke="url(#linearGradient-18)" id="路径-22" d="M35.8168474,193 C23.7910383,197.666667 13.7910383,200 5.81684739,200"></path>
        </g>
        <g transform="translate(377.000000, 294.000000)" id="人物">
            <ellipse ry="15" rx="46" cy="213" cx="46" fill="#FEE3B1" id="椭圆形"></ellipse>
            <g transform="translate(56.555947, 21.593845) scale(-1, 1) translate(-56.555947, -21.593845) translate(38.073507, 0.000000)" id="头">
                <rect height="10.4681258" width="10.4681258" y="32.7195635" x="14.707829" fill="url(#linearGradient-19)" id="矩形"></rect>
                <path fill="url(#linearGradient-20)" id="椭圆形" d="M24.8583084,35.6884349 C34.966164,33.5209588 35.3968518,26.6595705 34.1658269,16.6971677 C31.5670621,8.27166051 23.1865138,3.11389421 15.4473485,5.17697425 C7.70818315,7.24005429 3.54106517,15.7427342 6.13982998,24.1682415 C8.73859479,32.5937487 17.119143,37.751515 24.8583084,35.6884349 Z"></path>
                <path fill="#483029" id="路径-66" d="M14.6943569,34.4324266 C7.96341293,32.6668576 3.65796363,29.793849 1.778009,25.8134007 C-1.04192295,19.8427282 -0.297801284,12.7176954 2.53769085,9.62262093 C2.24433735,8.98631511 1.59952124,8.25111704 0.691179939,7.74202451 C1.7991358,7.23417591 3.68551236,7.01692704 4.14600128,7.34942299 C4.06110451,6.65728563 4.6041629,4.25103694 5.35481042,3.50747919 C5.30376182,4.03210204 5.40679166,4.801271 5.66389993,5.81498606 C6.5678819,3.90274081 9.39115142,2.09804079 14.1337085,0.400886017 C16.2784994,0.128731037 18.5641963,-0.425589292 22.8310913,0.571303727 C24.2457555,0.939184774 26.0630704,1.09187086 31.3524353,4.40503537 C30.6985171,4.41977194 30.2767456,4.47129204 30.0871206,4.55959568 C33.0017808,6.43883475 35.2943671,8.49001634 36.9648797,10.7131404 C36.4147499,10.9933477 35.9659576,11.1196124 35.6185026,11.0919348 L36.6310061,11.6070784 L33.7438029,11.6070784 L35.6185026,15.1976642 C33.0561628,12.680673 30.5654546,11.1858317 28.1463779,10.7131404 C26.5782935,10.1304549 26.1192053,9.94639862 26.1724427,11.6070784 C26.2256802,13.2677581 24.8827923,16.5155871 24.3637516,18.1210435 C23.6285181,19.6985792 23.5930902,20.373859 22.6712416,22.0084153 C21.7647326,24.0851279 20.6602899,26.187988 19.3579132,28.3169957 L18.6210214,25.8134007 C16.854677,24.4024381 15.5457889,24.4024381 14.6943569,25.8134007 C13.4172089,27.9298445 13.3753598,31.0328817 17.9726642,31.8075521 C16.3827332,32.1937551 15.2899641,33.0687133 14.6943569,34.4324266 Z"></path>
            </g>
            <path fill-rule="nonzero" fill="url(#linearGradient-21)" id="路径-52" d="M36.6969833,203.15898 L35.9422317,208.135784 C32.8684708,208.232775 29.5257997,209.144418 25.9142184,210.870712 C23.5901786,212.375189 23.4867419,213.056868 23.4119247,214.352289 C23.3620466,215.215904 29.9283816,215.215904 43.1109298,214.352289 L43.1109298,201.335022 L36.6969833,203.15898 Z"></path>
            <path fill-rule="nonzero" fill="url(#linearGradient-21)" id="路径-52备份-2" d="M60.3598837,203.15898 L59.605132,208.135784 C56.5313711,208.232775 53.1887,209.144418 49.5771188,210.870712 C47.2530789,212.375189 47.1496422,213.056868 47.074825,214.352289 C47.0249469,215.215904 53.5912819,215.215904 66.7738302,214.352289 L66.7738302,201.335022 L60.3598837,203.15898 Z"></path>
            <polygon points="52.770266 107.167804 61.1881964 204.387141 46.1664688 204.342315 31.5694134 108.201097" transform="translate(46.378805, 155.777472) scale(-1, 1) translate(-46.378805, -155.777472)" fill-rule="nonzero" fill="url(#linearGradient-22)" id="路径-5"></polygon>
            <polygon points="70.8270045 108.262031 57.3868087 205.168461 41.6218275 205.168461 41.5026315 107.792528" transform="translate(56.164818, 156.480495) scale(-1, 1) translate(-56.164818, -156.480495)" fill-rule="nonzero" fill="url(#linearGradient-23)" id="路径-4"></polygon>
            <g transform="translate(40.580404, 80.816786) scale(-1, 1) translate(-40.580404, -80.816786) translate(8.754958, 36.165499)" id="衣服">
                <path fill-rule="nonzero" fill="#FFDEC4" id="胳膊-path" d="M35.4071476,43.3586484 L36.4061833,45.8963698 L55.9033688,28.3815233 C56.1700569,27.7533437 56.505158,27.1574938 56.902405,26.6051182 C57.3434295,26.0414304 57.8461852,25.5305962 58.400959,25.0824854 L60.1517696,24.3211689 C60.1517696,24.3211689 60.9010466,24.4531304 60.9010466,24.8287132 C60.9010466,25.3248377 60.1517696,26.097574 60.1517696,26.097574 C60.1517696,26.097574 59.9594548,26.332567 59.4024926,27.1126626 C58.9804,27.7009064 59.4024926,27.6202069 59.4024926,27.6202069 L59.9020104,27.6202069 C59.9020104,27.6202069 60.0593588,27.4702275 60.9010466,26.3513461 C61.3780559,25.7147046 61.7968901,25.0351609 62.1523388,24.3211689 C62.1523388,24.3211689 62.5119917,23.6402982 63.151375,23.8136246 C63.4485882,23.8945779 63.6508928,24.574941 63.6508928,24.574941 C63.4524246,26.2323999 63.0322835,27.8545886 62.402098,29.396612 C61.9220549,30.5498641 61.3358468,31.6544516 60.6512874,32.6956498 C60.6512874,32.6956498 60.396533,33.5252309 59.1527334,33.9645107 C57.5642664,34.5253474 54.6520766,36.2484598 54.6520766,36.2484598 L38.6557628,54.5248764 C38.6557628,54.5248764 37.0573049,56.502777 35.9061659,56.5550538 C34.0017538,56.6426054 32.1567839,54.5248764 32.1567839,54.5248764 L31.157748,44.8789969 L35.4071476,43.3586484 Z"></path>
                <path fill="url(#linearGradient-24)" id="路径-6" d="M22.7770047,10.1848856 L36.1180133,46.0623081 L53.4468788,31.4585593 L56.6310604,36.0524012 L38.233465,56.3969327 C35.655638,58.5608684 33.5464333,57.8837169 31.9058509,54.3654783 C30.2652685,50.8472397 25.9992664,38.4896397 19.1078448,17.2926782 L22.7770047,10.1848856 Z"></path>
                <path fill="url(#linearGradient-25)" id="衣服-2" d="M23.4132701,6.098785 L11.281935,0 C11.281935,0 5.29101243,11.2215553 2.3416266,31.1049917 C-0.632442389,51.1552175 0.0730426415,72.1858965 0.0730426415,72.1858965 C0.0730426415,72.1858965 33.8494293,72.439376 33.8494293,72.439376 C33.8494293,72.439376 31.5810973,52.69764 28.3040298,30.5977792 C26.5099671,18.4908395 23.4132701,6.098785 23.4132701,6.098785 Z"></path>
                <path fill-rule="nonzero" fill="#FFDEC4" id="胳膊-path" d="M15.9107111,57.8274675 L20.6606275,79.9114817 C20.6606275,79.9114817 21.3946691,80.9872216 21.9094224,81.6878867 C22.6696888,82.721754 23.4079764,83.7180635 23.4079764,83.7180635 L17.4105138,89.3025737 L14.9109258,82.95827 L8.66220569,59.8584062 L15.9107111,57.8274675 Z"></path>
                <path fill="url(#linearGradient-26)" id="袖子" d="M20.4902983,13.8628114 L15.1970197,43.2740339 C15.1970197,43.2740339 14.9320535,45.8187143 15.1970197,47.8366643 C15.7198997,51.8180663 22.7770047,79.3585694 22.7770047,79.3585694 L13.769104,85.2631952 C13.769104,85.2631952 3.52616645,57.4752211 2.59273998,53.920932 C2.04889681,51.7493717 1.62843383,49.5483917 1.33339505,47.3286915 C1.33339505,47.3286915 1.38956183,44.8742498 1.33339505,42.7660611 C1.27722827,40.6578723 2.89019725,31.7224677 4.35808971,24.5107233 C5.38647078,19.4581171 6.62667367,15.1297017 6.62667367,15.1297017"></path>
            </g>
            <path transform="translate(11.387395, 60.541118) scale(-1, 1) translate(-11.387395, -60.541118)" fill="#483029" id="手机" d="M15.3825071,53.5552357 C14.9295173,53.3261215 14.3827215,53.5162834 14.1553275,53.9820181 L7.18842404,66.1854446 C6.97878084,66.4554911 6.94073803,66.827339 7.09108997,67.1368364 C7.24144191,67.4463337 7.5525135,67.6365142 7.88698395,67.6234232 C8.22145439,67.6103321 8.51775917,67.3963789 8.64509601,67.0760122 L15.6144154,54.8720857 C15.8986093,54.4414776 15.7952165,53.8543793 15.3825071,53.5552357 Z"></path>
        </g>
        <g transform="translate(104.000000, 462.000000)" id="草">
            <path fill="url(#linearGradient-27)" id="路径-82" d="M19.8790803,34 C18.0276428,22.8528995 13.8407253,15.9177478 7.31832782,13.1945449 C-2.46526832,9.10974048 -2.41358267,-0.28493237 7.31832782,0.00663440786 C20.8262435,0.679727169 25.013161,12.010849 19.8790803,34 Z"></path>
            <path fill="url(#linearGradient-28)" id="路径-83" d="M20,33 C20.8725418,28.1806357 23.24407,24.1910206 27.1145845,21.0311548 C32.9203562,16.291356 32.3445783,21.047297 31.4026205,23.1902923 C30.3025474,27.1438644 26.5016739,30.413767 20,33 Z"></path>
            <path transform="translate(15.000000, 26.000000) scale(-1, 1) translate(-15.000000, -26.000000)" fill="url(#linearGradient-28)" id="路径-83备份" d="M9,33 C9.87254181,28.1806357 12.24407,24.1910206 16.1145845,21.0311548 C21.9203562,16.291356 21.3445783,21.047297 20.4026205,23.1902923 C19.3025474,27.1438644 15.5016739,30.413767 9,33 Z"></path>
            <path fill="url(#linearGradient-29)" id="路径-47" d="M0,37.967407 C5.0836066,37.055976 7.88714649,36.282248 8.41061968,35.6462231 C9.19582945,34.6921856 16.1131703,30.5958713 20.4267956,34.0462545 C21.3658032,32.8854044 24.3772921,31.98241 26.1007025,34.0462545 C26.8891731,30.7878807 31.807991,28.7011113 33.9472353,29.0391761 C36.3563599,28.857817 43.468458,28.9332733 44,37.967407 C42.0595418,38.0108643 27.3928752,38.0108643 0,37.967407 Z"></path>
        </g>
        <g transform="translate(56.469330, 181.449711)" id="大雁">
            <path fill="url(#linearGradient-30)" id="路径" d="M20.2752385,35.0687901 L20.2752385,35.0161564 C17.3906535,26.8706352 7.9818162,23.0374487 0,24.2207999 C5.91848956,20.5400697 15.6887484,19.5599936 20.2769353,25.2026909 L20.2769353,25.2516947 C24.8583349,19.6580012 34.681195,20.5908884 40.5538706,24.2698037 C32.5788416,23.1409012 23.1683075,26.9686428 20.2769353,35.0651602 L20.2752385,35.0687901 Z"></path>
            <path fill="url(#linearGradient-31)" id="路径" d="M65.4660077,28.275791 L65.4660077,28.2413068 C63.4620696,22.5949796 56.9446044,19.9433293 51.4112918,20.7582445 C55.5124929,18.2082317 62.286177,17.5276233 65.4660077,21.4388528 L65.4660077,21.473337 C68.6458384,17.5965916 75.4500652,18.2427158 79.5207236,20.7927286 C73.987411,20.0104827 67.4733395,22.6639479 65.4660077,28.275791 L65.4660077,28.275791 Z"></path>
            <path fill="url(#linearGradient-31)" id="路径" d="M46.6201583,9.60020823 L46.6201583,9.56572407 C44.6162202,3.91939685 38.0987551,1.26774656 32.5654424,2.08266168 C36.6666435,-0.467351095 43.4403277,-1.14795949 46.6201583,2.76327007 L46.6201583,2.79775423 C49.799989,-1.07899117 56.6042159,-0.432866937 60.6748742,2.11714584 C55.1415616,1.33489992 48.6274901,3.98836517 46.6201583,9.60020823 L46.6201583,9.60020823 Z"></path>
            <path fill="url(#linearGradient-32)" id="路径" d="M103.755656,31.5042171 L103.755656,31.4806227 C102.367662,27.5675782 97.8473477,25.7272131 94.0125465,26.2934793 C96.8564079,24.5257124 101.551494,24.0538239 103.755656,26.7653678 L103.755656,26.7889622 C105.961515,24.1010128 110.676963,24.5493068 113.498766,26.3170737 C109.663965,25.772587 105.143651,27.614767 103.755656,31.5042171 Z"></path>
        </g>
    </g>
</svg>