<?xml version="1.0" standalone="no"?><!DOCTYPE svg PUBLIC "-//W3C//DTD SVG 1.1//EN" "http://www.w3.org/Graphics/SVG/1.1/DTD/svg11.dtd"><svg t="1644480000223" class="icon" viewBox="0 0 1024 1024" version="1.1" xmlns="http://www.w3.org/2000/svg" p-id="2776" xmlns:xlink="http://www.w3.org/1999/xlink" width="200" height="200"><defs><style type="text/css"></style></defs><path d="M773.5296 538.624c-2.6624-2.6624-3.6864-5.3248-3.6864-9.216v-177.3568-169.5744c0-27.8528-8.192-53.248-24.3712-75.776-19.0464-26.2144-44.032-45.056-73.9328-56.5248-65.7408-24.9856-130.048-21.7088-191.488 13.7216-20.48 11.8784-37.2736 27.648-50.176 47.5136-14.9504 22.7328-21.2992 47.3088-21.0944 74.3424 0.2048 114.2784 0 228.352 0.2048 342.6304 0 4.5056-1.4336 7.5776-4.5056 10.8544-66.56 68.4032-91.5456 149.9136-71.8848 243.0976 28.0576 135.5776 159.1296 225.28 295.7312 204.5952 51.6096-7.7824 97.4848-28.4672 136.192-63.8976 69.4272-63.8976 98.0992-143.1552 85.1968-236.544C841.728 628.736 815.3088 579.584 773.5296 538.624z m5.9392 218.9312c-9.216 54.272-36.864 96.8704-81.92 128.2048-24.3712 17.2032-52.0192 27.4432-81.7152 31.3344-55.7056 7.3728-105.2672-6.9632-148.6848-41.984-35.4304-28.672-58.368-65.9456-66.56-110.7968-13.5168-73.1136 8.6016-135.168 64.1024-184.9344 4.7104-4.096 11.4688-7.3728 13.7216-12.4928 2.4576-5.3248 0.6144-12.6976 0.6144-19.0464 0-119.808 0.4096-239.616-0.2048-359.424-0.2048-28.0576 12.0832-47.9232 34.6112-62.464 27.648-18.0224 58.7776-23.3472 91.3408-20.48 24.3712 2.2528 47.3088 9.8304 67.1744 24.9856 18.2272 13.9264 27.8528 31.744 27.8528 55.5008-0.6144 61.8496-0.2048 123.4944-0.2048 185.344v188.8256c0 4.9152 1.2288 8.192 5.12 11.264 27.2384 21.2992 48.7424 47.104 62.2592 79.0528 14.1312 34.816 18.6368 70.2464 12.4928 107.1104zM805.0688 217.2928c7.168 0.2048 14.336 0 21.2992 0s14.1312 0.2048 21.2992 0c9.8304-0.4096 16.9984-7.3728 17.408-16.7936 0.4096-9.4208-6.9632-17.408-16.9984-17.8176-14.5408-0.4096-28.8768-0.4096-43.4176 0-10.0352 0.2048-16.9984 7.9872-16.7936 17.8176 0.2048 9.6256 7.168 16.384 17.2032 16.7936z" p-id="2777"></path><path d="M847.6672 343.6544c-6.7584-0.2048-13.9264 0-20.8896 0H804.4544c-9.4208 0.4096-16.384 7.168-16.7936 16.1792-0.6144 9.6256 5.9392 17.8176 15.5648 18.2272 15.1552 0.6144 30.1056 0.6144 45.4656 0 9.4208-0.4096 16.1792-8.3968 15.9744-17.408-0.2048-9.6256-7.5776-16.7936-16.9984-16.9984zM845.6192 324.608h1.024c8.6016-0.4096 14.9504-4.7104 17.2032-11.6736 3.8912-11.4688-3.8912-22.7328-16.5888-22.9376-13.9264-0.4096-27.648-0.2048-41.3696 0-2.2528 0-4.7104 0.4096-6.7584 1.2288-7.7824 2.6624-12.288 10.24-11.264 18.8416 1.024 8.192 7.9872 14.336 17.2032 14.7456 7.168 0.4096 14.336 0 21.2992 0 6.3488-0.2048 12.9024-0.2048 19.2512-0.2048zM847.2576 397.1072c-6.9632-0.2048-13.9264 0-20.8896 0-7.168 0-14.336-0.2048-21.2992 0-10.0352 0.2048-17.408 7.5776-17.408 17.2032-0.2048 9.8304 7.3728 17.408 17.6128 17.408 14.1312 0.2048 27.8528 0.2048 41.984 0 9.8304-0.2048 17.408-7.5776 17.408-17.2032 0.2048-9.6256-7.5776-17.2032-17.408-17.408zM847.4624 450.56c-14.336-0.2048-28.2624-0.2048-42.3936 0-10.0352 0.2048-17.2032 7.9872-17.2032 17.6128s7.168 16.7936 17.408 16.9984c7.168 0.2048 14.336 0 21.2992 0 6.7584 0 13.9264 0.2048 20.6848 0 10.0352-0.2048 17.6128-7.3728 17.8176-16.9984-0.2048-9.4208-7.7824-17.408-17.6128-17.6128zM849.5104 270.5408c7.3728-0.4096 12.288-4.7104 14.5408-11.6736 3.6864-11.6736-4.3008-22.3232-16.9984-22.7328-13.9264-0.4096-27.648-0.2048-41.3696 0-2.2528 0-4.7104 0.6144-6.7584 1.4336-7.5776 2.8672-11.8784 10.4448-10.8544 18.6368 0.8192 7.5776 6.9632 13.9264 14.7456 14.336 7.7824 0.6144 15.5648 0.2048 22.9376 0.2048 7.9872-0.2048 15.9744 0.2048 23.7568-0.2048zM648.8064 606.4128c-3.8912-2.048-5.3248-4.096-5.3248-8.6016 0.2048-53.4528 0.2048-106.7008 0.2048-160.1536 0-52.6336-0.2048-105.0624 0-157.696 0-14.9504-6.7584-25.3952-18.6368-33.1776-17.6128-11.4688-36.6592-13.1072-56.32-6.9632-19.0464 5.7344-33.792 19.6608-33.792 45.056 0.8192 104.448 0.4096 208.6912 0.4096 313.344 0 3.6864-0.4096 5.9392-4.096 7.7824-63.0784 30.72-91.5456 102.1952-67.584 167.7312 24.3712 66.56 98.9184 102.8096 166.0928 80.896 61.6448-19.8656 100.1472-78.848 92.3648-143.5648-5.12-47.7184-30.72-82.7392-73.3184-104.6528zM261.12 134.7584c-16.7936 0-30.1056 13.5168-30.1056 30.1056v60.6208c0 16.7936 13.5168 30.1056 30.1056 30.1056s30.1056-13.5168 30.1056-30.1056H321.536c0 33.3824-27.0336 60.6208-60.6208 60.6208s-60.6208-27.0336-60.6208-60.6208V165.2736c0-33.3824 27.0336-60.6208 60.6208-60.6208S321.536 131.6864 321.536 165.2736h-29.9008c0-16.7936-13.7216-30.5152-30.5152-30.5152z m-143.5648 75.776c-29.0816 0-53.0432-23.552-53.0432-53.0432C64.512 128.2048 88.064 104.448 117.5552 104.448c29.0816 0 53.0432 23.552 53.0432 53.0432s-23.7568 53.0432-53.0432 53.0432z m0-75.776c-12.4928 0-22.7328 10.24-22.7328 22.7328S105.0624 180.224 117.5552 180.224s22.7328-10.24 22.7328-22.7328-10.24-22.7328-22.7328-22.7328z" p-id="2778"></path></svg>